<svg width="296" height="40" viewBox="0 0 296 40" fill="none" xmlns="http://www.w3.org/2000/svg">
<path d="M203.995 11.289H209.295V10.305H203.995V6.80618H209.927V5.79482H202.869V15.5531H203.995V11.289Z" fill="white"/>
<path d="M218.88 15.5531H220.061L215.584 5.71283H214.541L210.064 15.5531H211.19L212.344 12.9837H217.672L218.88 15.5531ZM212.838 11.9724L215.09 6.99754L217.314 11.9724H212.838Z" fill="white"/>
<path d="M226.707 12.8744L230.277 7.65354V15.5531H231.403V5.79482H230.277L226.707 11.125L223.137 5.79482H222.011V15.5531H223.082V7.65354L226.652 12.8744H226.707Z" fill="white"/>
<path d="M235.358 5.79482H234.259V15.5531H235.358V5.79482Z" fill="white"/>
<path d="M244.86 14.5418H239.34V5.79482H238.241V15.5531H244.86V14.5418Z" fill="white"/>
<path d="M248.155 15.5531H249.281V11.6717L253.346 5.79482H252.083L248.732 10.6603L245.437 5.79482H244.091L248.155 11.699V15.5531Z" fill="white"/>
<path d="M207.4 33.0743C205.231 33.0743 203.611 31.2976 203.611 29.0562V29.0288C203.611 26.7874 205.231 25.0381 207.4 25.0381C208.719 25.0381 209.652 25.5847 210.476 26.3774L211.245 25.5574C210.257 24.628 209.213 23.9994 207.428 23.9994C204.544 23.9994 202.457 26.2954 202.457 29.0562V29.0835C202.457 31.8716 204.544 34.113 207.373 34.113C209.158 34.113 210.284 33.4296 211.3 32.3909L210.559 31.6802C209.625 32.5549 208.746 33.0743 207.4 33.0743Z" fill="white"/>
<path d="M217.507 23.9994C214.513 23.9994 212.481 26.3501 212.481 29.0562V29.0835C212.481 31.7622 214.486 34.113 217.479 34.113C220.473 34.113 222.505 31.7622 222.505 29.0562V29.0288C222.505 26.3228 220.5 23.9994 217.507 23.9994ZM221.352 29.0562C221.352 31.2702 219.759 33.0469 217.507 33.0469C215.255 33.0469 213.635 31.2429 213.635 29.0288V29.0015C213.635 26.7874 215.227 25.0107 217.479 25.0107C219.731 25.0107 221.352 26.8148 221.352 29.0288V29.0562Z" fill="white"/>
<path d="M225.938 24.1634H224.839V33.9217H231.458V32.9103H225.938V24.1634Z" fill="white"/>
<path d="M234.616 24.1634H233.518V33.9217H240.136V32.9103H234.616V24.1634Z" fill="white"/>
<path d="M243.295 29.4935H248.65V28.5095H243.295V25.1747H249.254V24.1634H242.169V33.9217H249.336V32.9103H243.295V29.4935Z" fill="white"/>
<path d="M256.065 33.0743C253.895 33.0743 252.275 31.2976 252.275 29.0562V29.0288C252.275 26.7874 253.895 25.0381 256.065 25.0381C257.383 25.0381 258.317 25.5847 259.141 26.3774L259.91 25.5574C258.921 24.628 257.877 23.9994 256.092 23.9994C253.209 23.9994 251.121 26.2954 251.121 29.0562V29.0835C251.121 31.8716 253.209 34.113 256.037 34.113C257.822 34.113 258.948 33.4296 259.965 32.3909L259.223 31.6802C258.289 32.5549 257.41 33.0743 256.065 33.0743Z" fill="white"/>
<path d="M261.2 25.1747H264.496V33.9217H265.622V25.1747H268.917V24.1634H261.2V25.1747Z" fill="white"/>
<path d="M272.186 24.1634H271.087V33.9217H272.186V24.1634Z" fill="white"/>
<path d="M279.628 23.9994C276.634 23.9994 274.602 26.3501 274.602 29.0562V29.0835C274.602 31.7622 276.607 34.113 279.601 34.113C282.594 34.113 284.626 31.7622 284.626 29.0562V29.0288C284.626 26.3228 282.621 23.9994 279.628 23.9994ZM283.473 29.0562C283.473 31.2702 281.88 33.0469 279.628 33.0469C277.376 33.0469 275.756 31.2429 275.756 29.0288V29.0015C275.756 26.7874 277.349 25.0107 279.601 25.0107C281.852 25.0107 283.473 26.8148 283.473 29.0288V29.0562Z" fill="white"/>
<path d="M294.183 24.1634V31.9809L288.004 24.1634H286.961V33.9217H288.032V25.9127L294.376 33.9217H295.254V24.1634H294.183Z" fill="white"/>
<path d="M33.3675 1.39407L20.3775 32.2543L7.36009 1.39407C5.82217 1.44873 4.33918 1.47606 2.9111 1.47606C2.11468 1.47606 1.15347 1.47606 0.0274898 1.44873V1.85874L0.988694 2.15942C1.67527 2.40543 2.03226 2.95211 2.05972 3.6628C2.08719 4.8655 2.11464 6.58755 2.11464 8.41893V30.5323C2.11464 32.6917 2.08719 34.7144 2.05972 36.1904C2.03226 36.9284 1.53791 37.4205 0.878802 37.6118L0 37.8851V38.2952C1.18091 38.2678 2.22449 38.2678 3.07584 38.2678C3.87227 38.2678 4.80601 38.2678 5.82214 38.2678V37.8578L5.21797 37.6665C4.47647 37.4478 4.092 36.8738 4.06453 36.1358C4.03707 34.687 4.00962 32.6917 4.00962 30.5323V3.79947L18.5924 38.4318L19.7459 38.2952L34.3836 3.5808L34.2738 6.56022V30.5049C34.2738 32.6643 34.2464 34.6597 34.2189 36.1084C34.1914 36.8464 33.8344 37.4205 33.0929 37.6391L32.4612 37.8305V38.2678C33.6971 38.2405 34.9604 38.2405 36.2237 38.2405C37.5694 38.2405 38.97 38.2405 40.3981 38.2405V37.8578L39.5742 37.6118C38.8876 37.4205 38.3932 36.9284 38.3658 36.1904C38.3383 34.7144 38.3109 32.6917 38.3109 30.5323V8.41893C38.3109 6.58755 38.3383 4.8655 38.3658 3.6628C38.3932 2.95211 38.7777 2.40543 39.4643 2.15942L40.3981 1.85874V1.4214C39.2996 1.44874 38.3383 1.44873 37.5694 1.44873C36.3061 1.47606 34.9054 1.44873 33.3675 1.39407Z" fill="white"/>
<path d="M72.5298 0.491974C66.3232 0.491974 61.5446 2.29603 58.1117 5.79481C54.6788 9.32091 52.9487 14.1044 52.9487 20.2546C52.9487 26.1587 54.569 30.7782 57.7547 34.195C60.9404 37.5571 65.4443 39.2791 71.4038 39.2791C77.6653 39.2791 82.4439 37.4204 85.8493 33.7576C89.2822 30.0675 91.0398 25.1747 91.0398 18.9972C91.0398 13.2024 89.4195 8.69222 86.2338 5.43946C83.0206 2.18669 78.5167 0.491974 72.5298 0.491974ZM82.9108 33.8396C80.6039 36.9011 77.0337 38.3771 72.365 38.3771C67.5864 38.3771 63.879 36.7371 61.3524 33.4023C58.8532 30.0949 57.6449 25.3934 57.6449 19.4072C57.6449 13.5304 58.6884 9.04757 60.9129 6.04081C63.1924 2.95205 66.79 1.47601 71.5686 1.47601C76.5119 1.47601 80.2743 3.08872 82.7185 6.36882C85.1352 9.62158 86.2887 14.1864 86.2887 19.9812C86.2887 26.1314 85.1902 30.8055 82.9108 33.8396Z" fill="white"/>
<path d="M165.547 36.9011C165.08 37.1744 164.339 37.1471 164.339 37.1471H145.883V36.5184C145.856 34.5504 145.828 32.5003 145.828 30.4776V19.9266H148.904C150.799 19.9266 156.896 19.9539 159.258 19.9813C159.999 20.0086 160.466 20.5006 160.686 21.184L161.015 22.496H161.373C161.345 21.2113 161.345 20.1726 161.345 19.4346C161.345 18.6692 161.345 17.6579 161.373 16.3732H161.043L160.713 17.6852C160.494 18.3959 159.944 18.8332 159.203 18.8332C156.896 18.8606 150.827 18.8879 148.959 18.8879H145.856V2.62409H163.927C163.927 2.62409 164.695 2.56942 165.107 3.06143C165.574 3.63545 165.519 4.64681 165.519 4.64681H165.959L166.536 1.33938C162.251 1.39405 154.232 1.44871 150.36 1.44871H143.769C142.396 1.44871 140.995 1.42139 139.567 1.42139V1.8314L140.638 2.1594C141.325 2.40541 141.682 2.95209 141.709 3.66278C141.736 4.26413 141.736 5.11149 141.736 5.84951C141.764 6.61487 141.764 7.4349 141.764 8.36426V30.4776C141.764 31.5709 141.764 32.719 141.736 33.6483C141.736 34.5504 141.736 35.3704 141.709 36.1084C141.654 36.8191 141.215 37.3384 140.528 37.5298L139.539 37.8305V38.2678C140.995 38.2405 142.423 38.2405 143.851 38.2405H150.305C154.177 38.2405 162.361 38.2678 166.81 38.3498L167.03 35.0424H166.563C166.59 35.0971 166.261 36.4911 165.547 36.9011Z" fill="white"/>
<path d="M126.769 37.0651C126.44 36.8191 126.11 36.5184 125.78 36.1904C125.149 35.5617 124.462 34.687 123.776 33.6483C123.089 32.6096 122.403 31.3796 121.551 30.0402C120.782 28.7555 116.663 21.922 116.223 21.1566C116.223 21.1566 116.223 21.1293 116.141 21.0199C121.908 20.0086 126.742 17.5485 126.742 11.5897C126.742 3.55342 120.096 1.23002 111.884 1.23002C111.884 1.23002 111.884 1.23002 111.857 1.23002C110.95 1.23002 109.742 1.20268 108.369 1.20268C107.133 1.20268 105.787 1.20268 104.387 1.23002C99.6907 1.31202 98.1527 1.36669 97.8231 1.39402C97.6583 1.39402 97.4936 1.39402 97.3563 1.39402L97.1915 4.75612H97.6309C97.6858 4.53745 97.9605 3.36208 98.5921 2.95207C99.0315 2.65139 99.4434 2.6514 99.7455 2.62406C100.954 2.51473 101.915 2.48739 104.552 2.46006C107.984 2.43272 109.632 2.37805 111.527 2.43272C111.61 2.43272 111.665 2.43272 111.747 2.43272C118.256 2.84273 122.265 4.92013 122.265 11.617C122.265 17.3025 119.848 19.5166 115.619 20.2273C113.889 20.5279 111.967 20.6099 109.989 20.6099C110.099 20.6099 110.127 20.6373 110.127 20.6373C110.264 20.6919 110.539 20.8286 110.648 20.9106C110.95 21.1019 111.198 21.348 111.417 21.6486C111.637 21.922 111.884 22.2773 112.159 22.742C113.065 24.2727 114.164 26.0768 114.823 27.1975C115.482 28.3182 116.553 30.1222 117.404 31.5436C118.338 33.129 118.777 33.867 119.574 35.1517C120.123 36.0537 120.919 36.9284 121.579 37.4204C121.881 37.6664 122.21 37.8304 122.512 37.9945C122.842 38.1311 123.199 38.2678 123.611 38.3498C124.023 38.4591 124.462 38.5138 124.984 38.5411C125.533 38.5685 126.165 38.5958 126.906 38.5958C127.511 38.5958 128.856 38.5411 129.9 38.4591V38.1311C129.351 38.1038 128.554 38.0218 127.785 37.6664C127.291 37.4751 127.099 37.3111 126.769 37.0651Z" fill="white"/>
<path d="M183.535 0C183.315 0 183.123 0.191339 183.123 0.410012V39.4158C183.123 39.6345 183.315 39.8258 183.535 39.8258C183.755 39.8258 183.947 39.6345 183.947 39.4158V0.410012C183.947 0.164005 183.755 0 183.535 0Z" fill="white"/>
</svg>
